<svg width="100" height="100" viewBox="0 0 100 100" fill="none" xmlns="http://www.w3.org/2000/svg">
<path d="M43.7496 6.25C48.7844 6.25027 53.7677 7.26444 58.4022 9.23203C63.0367 11.1996 67.2276 14.0803 70.7248 17.7024C74.222 21.3245 76.9541 25.6137 78.758 30.3143C80.5619 35.0149 81.4008 40.0307 81.2246 45.0625C79.2601 44.2099 77.141 43.7717 74.9996 43.775V43.75C74.9975 37.3007 73 31.0101 69.2813 25.741C65.5625 20.4718 60.3046 16.4823 54.2288 14.3196C48.153 12.157 41.5568 11.9271 35.3452 13.6616C29.1335 15.396 23.6107 19.0099 19.5341 24.0073C15.4576 29.0048 13.0271 35.1412 12.5761 41.5746C12.125 48.0081 13.6755 54.4235 17.0148 59.941C20.3542 65.4584 25.3187 69.8075 31.2276 72.3917C37.1365 74.9759 43.7002 75.6687 50.0183 74.375V80.725C44.9026 81.5901 39.663 81.3843 34.631 80.1205C29.5989 78.8567 24.8838 76.5624 20.784 73.3828C16.6841 70.2032 13.2886 66.2074 10.8123 61.6482C8.33599 57.0889 6.8327 52.0654 6.39753 46.8953C5.96235 41.7253 6.60475 36.5212 8.28409 31.6121C9.96344 26.7031 12.6432 22.1959 16.1539 18.3757C19.6645 14.5555 23.9298 11.5054 28.6798 9.41817C33.4298 7.33099 38.5612 6.25219 43.7496 6.25ZM39.0621 50.2625L56.9996 32.275C57.5497 31.7192 58.2882 31.3899 59.0694 31.352C59.8505 31.3142 60.6174 31.5706 61.2187 32.0706C61.82 32.5706 62.2119 33.2779 62.3171 34.0529C62.4224 34.8278 62.2332 35.614 61.7871 36.2563L61.4246 36.6937L41.2746 56.8937C40.7575 57.4114 40.0752 57.7312 39.3465 57.7975C38.6178 57.8637 37.889 57.6722 37.2871 57.2563L36.8496 56.9L25.9121 45.9625C25.3584 45.4113 25.0313 44.6728 24.9952 43.8924C24.959 43.112 25.2165 42.3463 25.7169 41.7464C26.2173 41.1464 26.9242 40.7556 27.6984 40.651C28.4726 40.5464 29.2579 40.7356 29.8996 41.1813L30.3371 41.5375L39.0621 50.2625ZM65.6246 62.4875C65.4808 62.4875 65.3308 62.4875 65.1871 62.5H62.4996C60.842 62.5 59.2522 63.1585 58.0801 64.3306C56.908 65.5027 56.2496 67.0924 56.2496 68.75V87.5C56.2496 89.1576 56.908 90.7473 58.0801 91.9194C59.2522 93.0915 60.842 93.75 62.4996 93.75H87.4996C89.1572 93.75 90.7469 93.0915 91.919 91.9194C93.0911 90.7473 93.7496 89.1576 93.7496 87.5V84.375L93.7683 71.8625C93.7683 71.6688 93.7621 71.4688 93.7496 71.275V68.75C93.7496 67.0924 93.0911 65.5027 91.919 64.3306C90.7469 63.1585 89.1572 62.5 87.4996 62.5H84.8433C84.6934 62.4923 84.5434 62.4881 84.3933 62.4875H84.3746V59.4C84.3746 56.9136 83.3868 54.529 81.6287 52.7709C79.8705 51.0127 77.486 50.025 74.9996 50.025C72.5132 50.025 70.1286 51.0127 68.3704 52.7709C66.6123 54.529 65.6246 56.9136 65.6246 59.4V62.4875ZM71.8746 59.4C71.8746 58.5712 72.2038 57.7763 72.7898 57.1903C73.3759 56.6042 74.1708 56.275 74.9996 56.275C75.8284 56.275 76.6232 56.6042 77.2093 57.1903C77.7953 57.7763 78.1246 58.5712 78.1246 59.4V62.4875H71.8746V59.4ZM74.9996 81.25C74.1708 81.25 73.3759 80.9208 72.7898 80.3347C72.2038 79.7487 71.8746 78.9538 71.8746 78.125C71.8746 77.2962 72.2038 76.5013 72.7898 75.9153C73.3759 75.3292 74.1708 75 74.9996 75C75.8284 75 76.6232 75.3292 77.2093 75.9153C77.7953 76.5013 78.1246 77.2962 78.1246 78.125C78.1246 78.9538 77.7953 79.7487 77.2093 80.3347C76.6232 80.9208 75.8284 81.25 74.9996 81.25Z" fill="#3C87CC"/>
</svg>
